<mxfile host="app.diagrams.net" modified="2020-06-15T03:41:31.178Z" agent="5.0 (Linux; Android 9; Mi MIX 2) AppleWebKit/537.36 (KHTML, like Gecko) Chrome/80.0.3987.149 Mobile Safari/537.36" etag="91M1zFBjhw2sh8IzKnP1" version="13.2.4" type="github">
  <diagram id="yWsDECnuJlS--KMWPGA6" name="Page-1">
    <mxGraphModel dx="359" dy="583" grid="1" gridSize="10" guides="1" tooltips="1" connect="1" arrows="1" fold="1" page="1" pageScale="1" pageWidth="850" pageHeight="1100" math="0" shadow="0">
      <root>
        <mxCell id="0" />
        <mxCell id="1" parent="0" />
        <mxCell id="WpolVR4rW0htHXJvIHl4-1" value="" style="ellipse;whiteSpace=wrap;html=1;aspect=fixed;" vertex="1" parent="1">
          <mxGeometry x="150" y="260" width="80" height="80" as="geometry" />
        </mxCell>
        <mxCell id="WpolVR4rW0htHXJvIHl4-2" value="" style="shape=cylinder;whiteSpace=wrap;html=1;boundedLbl=1;backgroundOutline=1;" vertex="1" parent="1">
          <mxGeometry x="260" y="220" width="60" height="80" as="geometry" />
        </mxCell>
        <mxCell id="WpolVR4rW0htHXJvIHl4-3" value="" style="shape=callout;whiteSpace=wrap;html=1;perimeter=calloutPerimeter;" vertex="1" parent="1">
          <mxGeometry x="90" y="400" width="120" height="80" as="geometry" />
        </mxCell>
        <mxCell id="WpolVR4rW0htHXJvIHl4-4" value="" style="shape=card;whiteSpace=wrap;html=1;" vertex="1" parent="1">
          <mxGeometry x="20" y="310" width="80" height="100" as="geometry" />
        </mxCell>
        <mxCell id="WpolVR4rW0htHXJvIHl4-5" value="" style="shape=cube;whiteSpace=wrap;html=1;boundedLbl=1;backgroundOutline=1;darkOpacity=0.05;darkOpacity2=0.1;" vertex="1" parent="1">
          <mxGeometry x="230" y="310" width="120" height="80" as="geometry" />
        </mxCell>
        <mxCell id="WpolVR4rW0htHXJvIHl4-6" value="" style="ellipse;shape=cloud;whiteSpace=wrap;html=1;" vertex="1" parent="1">
          <mxGeometry x="60" y="160" width="70" height="80" as="geometry" />
        </mxCell>
        <mxCell id="WpolVR4rW0htHXJvIHl4-7" value="" style="shape=flexArrow;endArrow=classic;startArrow=classic;html=1;" edge="1" parent="1">
          <mxGeometry width="50" height="50" relative="1" as="geometry">
            <mxPoint x="160" y="330" as="sourcePoint" />
            <mxPoint x="110" y="240" as="targetPoint" />
          </mxGeometry>
        </mxCell>
        <mxCell id="WpolVR4rW0htHXJvIHl4-8" value="Actor" style="shape=umlActor;verticalLabelPosition=bottom;labelBackgroundColor=#ffffff;verticalAlign=top;html=1;outlineConnect=0;" vertex="1" parent="1">
          <mxGeometry x="230" y="150" width="30" height="60" as="geometry" />
        </mxCell>
        <mxCell id="WpolVR4rW0htHXJvIHl4-9" value="" style="shape=tape;whiteSpace=wrap;html=1;" vertex="1" parent="1">
          <mxGeometry x="195" y="120" width="120" height="100" as="geometry" />
        </mxCell>
      </root>
    </mxGraphModel>
  </diagram>
</mxfile>
